<?xml version="1.0"?>
<svg xmlns:rdf="http://www.w3.org/1999/02/22-rdf-syntax-ns#" xmlns="http://www.w3.org/2000/svg" xmlns:cc="http://creativecommons.org/ns#" xmlns:xlink="http://www.w3.org/1999/xlink" xmlns:dc="http://purl.org/dc/elements/1.1/" xmlns:svg="http://www.w3.org/2000/svg" id="svg2668" viewBox="0 0 57.544 57.544" version="1.0">
  <defs id="defs2670">
    <linearGradient id="linearGradient5118" y2="-72.33" xlink:href="#linearGradient3242" gradientUnits="userSpaceOnUse" x2="240.12" gradientTransform="matrix(-.12458 .13120 -.12458 -.13120 221.46 48.156)" y1="-7.9395" x1="175.73"/>
    <linearGradient id="linearGradient5116" y2="-72.33" xlink:href="#linearGradient3242" gradientUnits="userSpaceOnUse" x2="240.12" gradientTransform="matrix(-.13120 -.12458 .13120 -.12458 195.14 63.634)" y1="-7.9395" x1="175.73"/>
    <linearGradient id="linearGradient5114" y2="-72.33" xlink:href="#linearGradient3242" gradientUnits="userSpaceOnUse" x2="240.12" gradientTransform="matrix(.12458 -.13120 .12458 .13120 179.66 37.305)" y1="-7.9395" x1="175.73"/>
    <linearGradient id="linearGradient5112" y2="-72.33" xlink:href="#linearGradient3242" gradientUnits="userSpaceOnUse" x2="240.12" gradientTransform="matrix(.13120 .12458 -.13120 .12458 205.99 21.827)" y1="-7.9395" x1="175.73"/>
    <linearGradient id="linearGradient3242">
      <stop id="stop3244" stop-color="#ffd000" offset="0"/>
      <stop id="stop3250" stop-color="#ffb306" offset=".62628"/>
      <stop id="stop3246" stop-color="#e68200" offset="1"/>
    </linearGradient>
    <radialGradient id="radialGradient5102" xlink:href="#linearGradient3242" gradientUnits="userSpaceOnUse" cy="119.53" cx="130.74" r="23.307"/>
  </defs>
  <g id="layer1" transform="translate(-368.37 -240.73)">
    <g id="g4759" stroke-linejoin="round" transform="matrix(-1 0 0 -1 597.14 314.51)" stroke="#fffcf6" stroke-linecap="round" stroke-width="1.6757">
      <path id="path4761" d="m154.05 119.53a23.307 23.307 0 1 1 -46.61 0 23.307 23.307 0 1 1 46.61 0z" fill="url(#radialGradient5102)" transform="matrix(.57644 -.15446 .15446 .57644 106.17 -3.7101)"/>
      <g id="g4763" transform="matrix(.57644 -.15446 .15446 .57644 77.788 51.347)">
        <g id="g4765">
          <path id="path4767" d="m228.76 37.034l20.85 5.696-20.85 5.697 1.43-5.697-1.43-5.696z" fill="url(#linearGradient5112)"/>
          <path id="path4769" d="m194.86 14.528l5.7-20.843 5.7 20.843-5.7-1.422-5.7 1.422z" fill="url(#linearGradient5114)"/>
          <path id="path4771" d="m172.36 48.427l-20.84-5.697 20.84-5.696-1.42 5.696 1.42 5.697z" fill="url(#linearGradient5116)"/>
          <path id="path4773" d="m206.26 70.932l-5.7 20.844-5.7-20.844 5.7 1.423 5.7-1.423z" fill="url(#linearGradient5118)"/>
        </g>
        <g id="g4775" transform="matrix(.70711 -.70711 .70711 .70711 28.528 154.33)">
          <path id="path4777" d="m228.76 37.034l20.85 5.696-20.85 5.697 1.43-5.697-1.43-5.696z" fill="url(#linearGradient5112)"/>
          <path id="path4779" d="m194.86 14.528l5.7-20.843 5.7 20.843-5.7-1.422-5.7 1.422z" fill="url(#linearGradient5114)"/>
          <path id="path4781" d="m172.36 48.427l-20.84-5.697 20.84-5.696-1.42 5.696 1.42 5.697z" fill="url(#linearGradient5116)"/>
          <path id="path4783" d="m206.26 70.932l-5.7 20.844-5.7-20.844 5.7 1.423 5.7-1.423z" fill="url(#linearGradient5118)"/>
        </g>
      </g>
    </g>
  </g>
  <metadata>
    <rdf:RDF>
      <cc:Work>
        <dc:format>image/svg+xml</dc:format>
        <dc:type rdf:resource="http://purl.org/dc/dcmitype/StillImage"/>
        <cc:license rdf:resource="http://creativecommons.org/licenses/publicdomain/"/>
        <dc:publisher>
          <cc:Agent rdf:about="http://openclipart.org/">
            <dc:title>Openclipart</dc:title>
          </cc:Agent>
        </dc:publisher>
        <dc:title>Sun - Sole</dc:title>
        <dc:date>2009-07-28T08:51:02</dc:date>
        <dc:description>Sun</dc:description>
        <dc:source>http://openclipart.org/detail/27381/sun---sole-by-ernes</dc:source>
        <dc:creator>
          <cc:Agent>
            <dc:title>ernes</dc:title>
          </cc:Agent>
        </dc:creator>
        <dc:subject>
          <rdf:Bag>
            <rdf:li>clip art</rdf:li>
            <rdf:li>clipart</rdf:li>
            <rdf:li>icon</rdf:li>
            <rdf:li>image</rdf:li>
            <rdf:li>media</rdf:li>
            <rdf:li>nature</rdf:li>
            <rdf:li>png</rdf:li>
            <rdf:li>public domain</rdf:li>
            <rdf:li>sign</rdf:li>
            <rdf:li>svg</rdf:li>
            <rdf:li>symbol</rdf:li>
          </rdf:Bag>
        </dc:subject>
      </cc:Work>
      <cc:License rdf:about="http://creativecommons.org/licenses/publicdomain/">
        <cc:permits rdf:resource="http://creativecommons.org/ns#Reproduction"/>
        <cc:permits rdf:resource="http://creativecommons.org/ns#Distribution"/>
        <cc:permits rdf:resource="http://creativecommons.org/ns#DerivativeWorks"/>
      </cc:License>
    </rdf:RDF>
  </metadata>
</svg>
